<svg xmlns="http://www.w3.org/2000/svg" width="25.516" height="24.173" viewBox="0 0 25.516 24.173">
  <path id="Icon_material-account-balance-wallet" data-name="Icon material-account-balance-wallet" d="M28.673,24.644v1.343a2.694,2.694,0,0,1-2.686,2.686H7.186A2.685,2.685,0,0,1,4.5,25.987V7.186A2.685,2.685,0,0,1,7.186,4.5h18.8a2.694,2.694,0,0,1,2.686,2.686V8.529H16.586A2.685,2.685,0,0,0,13.9,11.215V21.958a2.685,2.685,0,0,0,2.686,2.686ZM16.586,21.958H30.016V11.215H16.586ZM21.958,18.6a2.014,2.014,0,1,1,2.014-2.014A2.012,2.012,0,0,1,21.958,18.6Z" transform="translate(-4.5 -4.5)" fill="#7c5cc4"/>
</svg>
