<svg xmlns="http://www.w3.org/2000/svg" width="49" height="48" viewBox="0 0 49 48">
  <g id="Group_83" data-name="Group 83" transform="translate(0.478 -0.008)">
    <g id="Ellipse_69" data-name="Ellipse 69" transform="translate(-0.478 0.008)" fill="#fff" stroke="#fff" stroke-width="1">
      <ellipse cx="24.5" cy="24" rx="24.5" ry="24" stroke="none"/>
      <ellipse cx="24.5" cy="24" rx="24" ry="23.5" fill="none"/>
    </g>
    <path id="Icon_awesome-twitter" data-name="Icon awesome-twitter" d="M22.529,8.463c.016.223.016.446.016.669A14.542,14.542,0,0,1,7.9,23.775,14.543,14.543,0,0,1,0,21.465a10.646,10.646,0,0,0,1.243.064,10.307,10.307,0,0,0,6.389-2.2A5.155,5.155,0,0,1,2.82,15.761a6.49,6.49,0,0,0,.972.08,5.443,5.443,0,0,0,1.354-.175A5.147,5.147,0,0,1,1.02,10.614v-.064a5.183,5.183,0,0,0,2.326.653A5.154,5.154,0,0,1,1.753,4.321,14.628,14.628,0,0,0,12.364,9.706a5.81,5.81,0,0,1-.127-1.179,5.151,5.151,0,0,1,8.907-3.521,10.132,10.132,0,0,0,3.266-1.243A5.132,5.132,0,0,1,22.147,6.6a10.317,10.317,0,0,0,2.964-.8,11.063,11.063,0,0,1-2.581,2.661Z" transform="translate(12.285 9.912)" fill="#1da1f2"/>
  </g>
</svg>
