<svg xmlns="http://www.w3.org/2000/svg" xmlns:xlink="http://www.w3.org/1999/xlink" width="48" height="48" viewBox="0 0 48 48">
  <defs>
    <linearGradient id="linear-gradient" x1="0.555" x2="0.132" y2="0.912" gradientUnits="objectBoundingBox">
      <stop offset="0" stop-color="#5a4fd0"/>
      <stop offset="0.24" stop-color="#a0119d"/>
      <stop offset="0.572" stop-color="#d8171f"/>
      <stop offset="1" stop-color="#feda77"/>
    </linearGradient>
  </defs>
  <g id="Group_133" data-name="Group 133" transform="translate(-7473 1103)">
    <g id="Group_80" data-name="Group 80" transform="translate(7472.701 -1103.008)">
      <g id="Ellipse_72" data-name="Ellipse 72" transform="translate(0.299 0.008)" fill="#fff" stroke="#fff" stroke-width="1">
        <circle cx="24" cy="24" r="24" stroke="none"/>
        <circle cx="24" cy="24" r="23.5" fill="none"/>
      </g>
    </g>
    <path id="Icon_simple-instagram" data-name="Icon simple-instagram" d="M12.161,0c-3.3,0-3.716.015-5.014.073A8.967,8.967,0,0,0,4.2.638a5.955,5.955,0,0,0-2.155,1.4A5.934,5.934,0,0,0,.638,4.2,8.941,8.941,0,0,0,.073,7.148C.012,8.445,0,8.857,0,12.161s.015,3.716.073,5.013a8.973,8.973,0,0,0,.566,2.952,5.964,5.964,0,0,0,1.4,2.155,5.947,5.947,0,0,0,2.155,1.4,8.979,8.979,0,0,0,2.952.566c1.3.061,1.71.073,5.014.073s3.716-.015,5.013-.073a9,9,0,0,0,2.952-.566,6.215,6.215,0,0,0,3.557-3.557,8.973,8.973,0,0,0,.566-2.952c.061-1.3.073-1.71.073-5.014s-.015-3.716-.073-5.013A8.994,8.994,0,0,0,23.684,4.2a5.969,5.969,0,0,0-1.4-2.155,5.925,5.925,0,0,0-2.155-1.4A8.947,8.947,0,0,0,17.175.073C15.878.012,15.465,0,12.161,0Zm0,2.189c3.246,0,3.633.016,4.915.072a6.7,6.7,0,0,1,2.257.421,4,4,0,0,1,2.309,2.308,6.714,6.714,0,0,1,.419,2.257c.058,1.283.071,1.668.071,4.915s-.015,3.633-.075,4.915a6.844,6.844,0,0,1-.427,2.257,3.861,3.861,0,0,1-.911,1.4,3.794,3.794,0,0,1-1.4.908,6.764,6.764,0,0,1-2.265.419c-1.291.058-1.671.071-4.924.071s-3.634-.015-4.924-.075a6.9,6.9,0,0,1-2.266-.427,3.766,3.766,0,0,1-1.4-.911,3.693,3.693,0,0,1-.912-1.4,6.9,6.9,0,0,1-.426-2.265c-.046-1.277-.062-1.671-.062-4.909s.016-3.634.062-4.926a6.894,6.894,0,0,1,.426-2.264,3.6,3.6,0,0,1,.912-1.4,3.6,3.6,0,0,1,1.4-.91,6.731,6.731,0,0,1,2.251-.427c1.292-.046,1.672-.061,4.924-.061l.046.03Zm0,3.727a6.245,6.245,0,1,0,6.245,6.245A6.244,6.244,0,0,0,12.161,5.916Zm0,10.3a4.054,4.054,0,1,1,4.054-4.054A4.053,4.053,0,0,1,12.161,16.215ZM20.113,5.67a1.459,1.459,0,1,1-1.459-1.458A1.46,1.46,0,0,1,20.113,5.67Z" transform="translate(7485 -1091)" fill="url(#linear-gradient)"/>
  </g>
</svg>
